<svg width="20" height="18" viewBox="0 0 20 18" fill="none" xmlns="http://www.w3.org/2000/svg">
<path d="M1.25 7.71592H16.075L11.5375 2.26592C11.3253 2.01065 11.2232 1.68155 11.2537 1.35102C11.2842 1.02048 11.4447 0.715594 11.7 0.503421C11.9553 0.291248 12.2844 0.18917 12.6149 0.219645C12.9454 0.25012 13.2503 0.41065 13.4625 0.665921L19.7125 8.16592C19.7545 8.22558 19.7922 8.28825 19.825 8.35342C19.825 8.41592 19.825 8.45342 19.9125 8.51592C19.9692 8.65924 19.9988 8.81181 20 8.96592C19.9988 9.12003 19.9692 9.2726 19.9125 9.41592C19.9125 9.47842 19.9125 9.51592 19.825 9.57842C19.7922 9.6436 19.7545 9.70627 19.7125 9.76592L13.4625 17.2659C13.345 17.407 13.1978 17.5205 13.0314 17.5983C12.8651 17.6761 12.6836 17.7162 12.5 17.7159C12.2079 17.7165 11.9249 17.6148 11.7 17.4284C11.5734 17.3235 11.4688 17.1946 11.3921 17.0492C11.3154 16.9037 11.2682 16.7446 11.2531 16.5809C11.238 16.4172 11.2553 16.2521 11.3041 16.0951C11.3529 15.9381 11.4322 15.7922 11.5375 15.6659L16.075 10.2159H1.25C0.91848 10.2159 0.600536 10.0842 0.366116 9.8498C0.131695 9.61538 0 9.29744 0 8.96592C0 8.6344 0.131695 8.31646 0.366116 8.08204C0.600536 7.84762 0.91848 7.71592 1.25 7.71592Z" fill="#DDE0E4"/>
</svg>
