<svg width="20" height="18" viewBox="0 0 20 18" fill="none" xmlns="http://www.w3.org/2000/svg">
<path d="M18.75 7.71592H3.925L8.4625 2.26592C8.67467 2.01065 8.77675 1.68155 8.74628 1.35102C8.7158 1.02048 8.55527 0.715594 8.3 0.503421C8.04473 0.291248 7.71563 0.18917 7.3851 0.219645C7.05456 0.25012 6.74967 0.41065 6.5375 0.665921L0.2875 8.16592C0.245451 8.22558 0.207849 8.28825 0.175 8.35342C0.175 8.41592 0.175 8.45342 0.0875002 8.51592C0.0308421 8.65924 0.0011764 8.81181 0 8.96592C0.0011764 9.12003 0.0308421 9.2726 0.0875002 9.41592C0.0875002 9.47842 0.0874998 9.51592 0.175 9.57842C0.207849 9.6436 0.245451 9.70627 0.2875 9.76592L6.5375 17.2659C6.65503 17.407 6.8022 17.5205 6.96856 17.5983C7.13491 17.6761 7.31636 17.7162 7.5 17.7159C7.79207 17.7165 8.07511 17.6148 8.3 17.4284C8.42657 17.3235 8.5312 17.1946 8.60789 17.0492C8.68458 16.9037 8.73183 16.7446 8.74692 16.5809C8.76202 16.4172 8.74466 16.2521 8.69586 16.0951C8.64705 15.9381 8.56775 15.7922 8.4625 15.6659L3.925 10.2159H18.75C19.0815 10.2159 19.3995 10.0842 19.6339 9.8498C19.8683 9.61538 20 9.29744 20 8.96592C20 8.6344 19.8683 8.31646 19.6339 8.08204C19.3995 7.84762 19.0815 7.71592 18.75 7.71592Z" fill="#DDE0E4"/>
</svg>
